# xmcd
#
# Track frame offsets:
#	150
#	13314
#	23003
#	40140
#	56350
#	69164
#	81467
#	92123
#	102963
#	120116
#	134129
#	145717
#	159857
#	176250
#	189676
#	209751
#
# Disc length: 2983 seconds
#
# Revision: 1
# Processed by: cddbd v1.5.2PL0 Copyright (c) Steve Scherf et al.
# Submitted via: audiograbber 1.83.01
#
DISCID=d50ba510
DTITLE=Charlie Rich - 'Country Legends'
DYEAR=2007
DGENRE=Country
TTITLE0=The most beautiful girl in the world (1973)
TTITLE1=Mohair Sam (1965)
TTITLE2=Life has its little ups and downs (1970)
TTITLE3=Who will the next fool be (1969)
TTITLE4=I take it on home (1972)
TTITLE5=Behind closed doors (1973)
TTITLE6=Lonely weekends (1961)
TTITLE7=There won't be anymore (1966)
TTITLE8=My elusive dreams (1974)
TTITLE9=My mountain dew (1964)
TTITLE10=Rollin' with the flow (1977)
TTITLE11=On my knees (1974)
TTITLE12=Big Boss Man (1964)
TTITLE13=Sittin' and thinkin' (1970)
TTITLE14=You don't know me (1992)
TTITLE15=Break up (1969)
EXTD=IMC Music Portugal\n8712177050406
EXTT0=
EXTT1=
EXTT2=
EXTT3=
EXTT4=
EXTT5=
EXTT6=
EXTT7=
EXTT8=
EXTT9=
EXTT10=
EXTT11=
EXTT12=
EXTT13=
EXTT14=
EXTT15=
PLAYORDER=
